Coordinates
version=1
nRows=19
nColumns=36
inDegrees=yes

Units are S.I. units (second, meters, Newtons, ...)
If the header above contains a line with 'inDegrees', this indicates whether rotational values are in degrees (yes) or radians (no).

endheader
time	pelvis_tilt	pelvis_list	pelvis_rotation	pelvis_tx	pelvis_ty	pelvis_tz	hip_flexion_r	hip_adduction_r	hip_rotation_r	knee_angle_r	knee_angle_r_beta	ankle_angle_r	subtalar_angle_r	mtp_angle_r	hip_flexion_l	hip_adduction_l	hip_rotation_l	knee_angle_l	knee_angle_l_beta	ankle_angle_l	subtalar_angle_l	mtp_angle_l	lumbar_extension	lumbar_bending	lumbar_rotation	arm_flex_r	arm_add_r	arm_rot_r	elbow_flex_r	pro_sup_r	arm_flex_l	arm_add_l	arm_rot_l	elbow_flex_l	pro_sup_l
      1.25000000	    -13.09935663	      1.37778113	     -2.77350623	      0.72419625	      1.24129587	      0.02453509	     12.84368226	     -0.66040082	     -6.34798943	      0.90917798	      0.01586815	      6.29539455	     -1.41723461	     -7.49999776	     12.59859335	      0.21273895	     -3.90152454	      2.00211670	      0.03494353	      7.01073768	      4.02563462	     -7.49999776	     -1.99972511	     -1.99399673	     -0.55617111	    -14.20827523	    -28.88019854	     84.45682132	     32.96270273	     66.84379707	    -20.70602770	    -24.15222894	     21.36779924	     28.46774807	    102.59028634
      1.26666670	    -13.16655151	      1.36504019	     -2.71323379	      0.72446893	      1.24158096	      0.02464859	     13.00854887	     -0.64148485	     -6.52710419	      1.08979155	      0.01902045	      6.38270792	     -1.41431914	     -7.49999933	     12.89421756	      0.11285692	     -4.04843239	      2.38267756	      0.04158557	      7.17690333	      4.11769727	     -7.49999933	     -2.59047145	     -2.20599389	     -1.49916911	    -11.68075654	    -31.34014185	    100.34000375	     38.67580116	     51.35285766	    -23.66336562	    -25.68686887	     34.07463895	     28.50870735	     90.93614347
      1.28333330	    -13.38422088	      1.34573923	     -2.71553401	      0.72453378	      1.23830254	      0.02494823	     13.48184987	     -0.60235804	     -6.49280292	      1.50296068	      0.02623161	      6.38002822	     -1.81148091	     -7.49999955	     13.51539256	     -0.04447210	     -4.35197183	      3.05784860	      0.05336953	      7.47163567	      4.33454814	     -7.49999955	     -3.31721403	     -2.25882054	     -1.17313453	    -12.74948133	    -33.44554449	    103.45993330	     42.51823529	     52.56376877	    -25.55426392	    -27.28585844	     38.96680228	     29.67104115	     86.23612818
      1.30000000	    -13.59968654	      1.33550670	     -2.64889989	      0.72524378	      1.23484515	      0.02482566	     14.10096753	     -0.63096866	     -6.77871267	      2.23185203	      0.03895317	      6.58690565	     -1.87818933	     -7.49999974	     14.26319208	     -0.14501885	     -4.31084921	      3.89612854	      0.06800027	      7.74402972	      3.94396111	     -7.49999974	     -3.91857693	     -2.07451314	     -1.03057807	    -12.61302476	    -35.62008731	    111.05991039	     47.02614013	     43.31433297	    -27.09742365	    -30.01708429	     38.31717919	     33.46479765	     85.19276444
      1.31666670	    -13.97293669	      1.32620067	     -2.67796983	      0.72606223	      1.23474418	      0.02475932	     14.95007973	     -0.66832209	     -6.96547197	      3.06451760	      0.05348592	      6.78997068	     -1.99106943	     -7.49999981	     15.24036730	     -0.27399341	     -4.52391460	      4.92470762	      0.08595236	      8.20792058	      3.84419876	     -7.49999981	     -4.66166013	     -1.88061899	     -1.33019067	    -13.09400931	    -37.67746020	    115.57071921	     49.16325707	     43.14096014	    -30.57979839	    -31.58403400	     25.68439590	     38.72368670	     93.61105772
      1.33333330	    -14.38194255	      1.31088329	     -2.68080445	      0.72686601	      1.23513019	      0.02491180	     15.88813771	     -0.71850613	     -7.07103236	      4.08486217	      0.07129429	      7.10379940	     -2.14925827	     -7.49999984	     16.27071404	     -0.41432703	     -4.66125642	      6.03018803	      0.10524664	      8.65743118	      3.64804732	     -7.49999984	     -5.48977766	     -1.73963569	     -1.50702079	    -14.13452109	    -39.22335076	    117.75114280	     49.64687526	     44.60564294	    -34.35566492	    -32.67866131	     13.47748095	     45.21218636	     99.72346075
      1.35000000	    -14.73300957	      1.25297400	     -2.72726091	      0.73441414	      1.22863844	      0.02975698	     16.70200806	     -0.70271310	     -7.20851788	      5.16139902	      0.09008341	      7.57835877	     -2.17597605	     -7.49999985	     17.14737148	     -0.61904922	     -4.80580863	      7.09616674	      0.12385147	      9.13144490	      3.40136293	     -7.49999985	     -6.35181996	     -1.58689116	     -1.20343585	    -16.43504815	    -40.01997220	    116.57228323	     48.22940572	     46.89439077	    -37.89583195	    -33.12870974	      2.38845989	     51.38417342	    102.71034899
      1.36666670	    -14.85449801	      1.23249609	     -2.78674827	      0.73385818	      1.22638255	      0.02998897	     17.36059203	     -0.72579264	     -7.13159672	      6.27281594	      0.10948129	      7.99972094	     -2.37766325	     -7.49999986	     17.76385781	     -0.74600830	     -4.75394607	      8.17155856	      0.14262060	      9.68801717	      3.08509890	     -7.49999986	     -6.86746972	     -0.83854947	     -2.30456603	    -21.05773312	    -39.85690367	    120.41362761	     41.54763029	     49.74235297	    -41.66163658	    -31.80662141	    -11.11209721	     55.05377350	    107.14787450
      1.38333330	    -14.87984228	      1.17661491	     -2.80896563	      0.73367205	      1.23028400	      0.02981018	     17.90794170	     -0.75229367	     -7.11786151	      7.39352134	      0.12904129	      8.49066344	     -2.42827471	     -7.49999986	     18.31868550	     -0.90412761	     -4.69343315	      9.28245494	      0.16200940	     10.20897231	      2.70371846	     -7.49999986	     -7.22716137	      0.36088996	     -3.93328406	    -25.11778352	    -39.49283546	    123.86472091	     34.79785913	     50.15578158	    -42.92047365	    -28.94211112	    -21.64962812	     56.02019404	    108.09056726
      1.40000000	    -14.95774627	      1.16266142	     -2.83686096	      0.74119084	      1.22748084	      0.03446855	     18.18229602	     -0.74429338	     -7.09526099	      8.13692509	      0.14201613	      8.96437371	     -2.50910367	     -7.49999986	     18.56405524	     -0.99782673	     -4.63434443	     10.04673051	      0.17534853	     10.41199727	      2.33503464	     -7.49999986	     -8.00941887	      0.51992383	     -3.72353538	    -25.97066164	    -39.32336043	    124.30348444	     33.06333772	     49.68756754	    -43.33420541	    -28.71548465	    -25.32163236	     59.01875114	    108.14945329
      1.41666670	    -15.28929986	      1.15107156	     -2.79815608	      0.74086889	      1.22440288	      0.03441777	     18.68656298	     -0.74321271	     -7.13587134	      8.82161509	      0.15396623	      9.44661640	     -2.52603296	     -7.49999987	     19.13674438	     -1.13689910	     -4.65160135	     10.91607622	      0.19052147	     10.70498621	      2.07619720	     -7.49999987	     -8.85831595	      0.17244407	     -3.82486892	    -24.76479810	    -39.58769378	    124.91297940	     33.23867630	     48.98277596	    -44.82174072	    -27.17625535	    -31.27686122	     62.86416755	    108.20096259
      1.43333330	    -15.71671480	      1.13526210	     -2.81126763	      0.74153143	      1.22122843	      0.03436212	     19.41839987	     -0.71646996	     -7.09242157	      9.80153420	      0.17106904	      9.94557116	     -2.66143365	     -7.49999987	     19.92157055	     -1.28475157	     -4.53330029	     11.96776450	      0.20887689	     11.19341345	      1.78381132	     -7.49999987	     -9.81286926	     -0.15476848	     -3.37572347	    -24.10509152	    -39.56347880	    123.81082646	     32.86128465	     49.01456863	    -45.76730215	    -26.81346446	    -34.77899074	     65.90902952	    106.33919947
      1.45000000	    -16.30463760	      1.16632832	     -2.79944776	      0.74139108	      1.21170145	      0.03463650	     20.52727112	     -0.78942989	     -7.05876846	     11.09862077	      0.19370747	     10.57523271	     -2.97626925	     -7.49999987	     21.08930111	     -1.39381527	     -4.38823342	     13.37773486	      0.23348552	     12.00552274	      1.51092113	     -7.49999987	    -10.79226144	     -0.62495705	     -3.35747417	    -23.02135425	    -40.07271472	    120.93115105	     32.97794363	     48.36218111	    -46.95193081	    -25.37588735	    -39.68961232	     69.13122870	    104.74128539
      1.46666670	    -16.78696579	      1.19415989	     -2.81823527	      0.74263795	      1.21160768	      0.03451342	     21.58099251	     -0.89473989	     -7.04121474	     12.51944966	      0.21850562	     11.30083618	     -3.06069860	     -7.49999987	     22.11822923	     -1.48305500	     -4.27122693	     14.69106128	      0.25640739	     12.83084501	      1.31028881	     -7.49999987	    -11.62411212	     -1.11864694	     -2.92565176	    -22.33218080	    -39.90434309	    118.00752161	     32.08058851	     48.67410110	    -47.30578627	    -24.21094132	    -43.71708446	     71.91817002	    103.22357364
      1.48333330	    -17.37236531	      1.26154768	     -2.91873744	      0.75005979	      1.20558536	      0.03924327	     22.73559397	     -0.97502606	     -6.90838020	     13.93646299	      0.24323717	     12.08188145	     -3.40775629	     -7.49999987	     23.35142685	     -1.55161845	     -4.02306494	     16.32566684	      0.28493664	     13.85129244	      0.92848154	     -7.49999987	    -12.52972033	     -1.41685353	     -1.69733585	    -24.61870119	    -38.96667600	    106.46116052	     29.75708998	     43.95006413	    -46.02162530	    -23.39373998	    -47.37078097	     72.67025127	    103.39356945
      1.50000000	    -17.86262581	      1.32428659	     -2.98012255	      0.75798497	      1.20289368	      0.04394291	     23.63231730	     -1.02679028	     -6.78299043	     15.21958011	      0.26563178	     13.07585396	     -3.49308663	     -7.49999987	     24.37647685	     -1.65948170	     -3.85595086	     17.88597020	      0.31216907	     14.75500297	      0.78778665	     -7.49999987	    -13.39405424	     -1.60539546	     -0.71696774	    -26.46184888	    -36.81344075	     94.26838629	     26.52429246	     41.79709683	    -44.18055581	    -22.23625376	    -51.08852656	     72.60198296	    103.22861744
      1.51666670	    -18.29286433	      1.33111594	     -3.12033392	      0.75773446	      1.20046952	      0.04395219	     24.59095725	     -0.98879816	     -6.58706512	     16.65984548	      0.29076916	     14.02468182	     -3.57438217	     -7.49999987	     25.55206156	     -1.89239702	     -3.86422854	     19.85527059	      0.34653985	     15.95657444	      0.95615123	     -7.49999987	    -14.36627559	     -1.62606863	     -1.42342182	    -23.79256520	    -34.01358434	     91.50156226	     21.80471378	     42.42372397	    -41.48562395	    -20.11979640	    -55.01964210	     69.97053613	    103.56417179
      1.53333330	    -19.19741880	      1.25052282	     -3.24911988	      0.75793885	      1.20070723	      0.04353619	     26.06594483	     -0.81356667	     -6.28549503	     18.11760903	      0.31621193	     14.95844323	     -3.92277473	     -7.49999987	     27.35011424	     -2.21843638	     -3.66888233	     21.90122913	      0.38224856	     16.89899269	      0.45779444	     -7.49999987	    -15.03371825	     -1.15618845	      1.51187621	    -30.08347019	    -27.53803738	     44.63301209	     14.45312075	     67.49189103	    -36.66268010	    -21.45217074	    -55.19791752	     67.69526360	    105.19469568
      1.55000000	    -19.78376157	      1.15730170	     -3.26034928	      0.75827608	      1.19660637	      0.04306434	     27.19464960	     -0.69821269	     -6.12344974	     19.53727113	      0.34098971	     16.03835829	     -4.00672579	     -7.49999987	     28.88405908	     -2.55277234	     -3.60690922	     24.08440766	      0.42035221	     17.99552152	      0.29295513	     -7.49999987	    -15.39848866	     -0.92204447	      0.56825896	    -27.35585532	    -24.00282334	     20.71390933	     10.43010227	     83.01140860	    -33.97877031	    -19.59539558	    -57.43744662	     67.44572256	    106.89412951
